<svg xmlns="http://www.w3.org/2000/svg" viewBox="0 0 256 256" role="img" aria-label="RedLantern Studios">
  <defs>
    <linearGradient id="g" x1="0" y1="0" x2="1" y2="1">
      <stop offset="0%" stop-color="#ff6b6b"/>
      <stop offset="100%" stop-color="#d92532"/>
    </linearGradient>
  </defs>
  <rect width="256" height="256" rx="64" fill="#0b0c10"/>
  <circle cx="128" cy="128" r="82" fill="url(#g)" opacity="0.18"/>
  <path d="M128 38c-34 0-61 27-61 61 0 39 28 57 61 119 33-62 61-80 61-119 0-34-27-61-61-61z" fill="url(#g)"/>
  <path d="M128 74c-15 0-27 12-27 27 0 16 11 25 27 52 16-27 27-36 27-52 0-15-12-27-27-27z" fill="#fff" opacity="0.18"/>
  <text x="128" y="222" text-anchor="middle" fill="#f7f2ee" font-family="Arial, Helvetica, sans-serif" font-size="28" font-weight="700" letter-spacing="8">RLS</text>
</svg>